<mxfile host="app.diagrams.net" modified="2023-12-18T14:24:09.254Z" agent="Mozilla/5.0 (Windows NT 10.0; Win64; x64) AppleWebKit/537.36 (KHTML, like Gecko) Chrome/120.0.0.0 Safari/537.36" etag="QQiqCNs9KrGXDVEPdvzJ" version="22.1.11" type="github">
  <diagram name="Page-1" id="jd4_b2cbeIl36sTIpOt9">
    <mxGraphModel dx="1434" dy="780" grid="1" gridSize="10" guides="1" tooltips="1" connect="1" arrows="1" fold="1" page="1" pageScale="1" pageWidth="827" pageHeight="1169" math="0" shadow="0">
      <root>
        <mxCell id="0" />
        <mxCell id="1" parent="0" />
        <mxCell id="ost7xarvKawhktNh5oQj-1" value="Pool" style="swimlane;html=1;childLayout=stackLayout;resizeParent=1;resizeParentMax=0;horizontal=0;startSize=20;horizontalStack=0;whiteSpace=wrap;" vertex="1" parent="1">
          <mxGeometry width="800" height="400" as="geometry" />
        </mxCell>
        <mxCell id="ost7xarvKawhktNh5oQj-2" value="Lane 1" style="swimlane;html=1;startSize=20;horizontal=0;" vertex="1" parent="ost7xarvKawhktNh5oQj-1">
          <mxGeometry x="20" width="780" height="400" as="geometry" />
        </mxCell>
        <mxCell id="ost7xarvKawhktNh5oQj-5" value="" style="points=[[0.145,0.145,0],[0.5,0,0],[0.855,0.145,0],[1,0.5,0],[0.855,0.855,0],[0.5,1,0],[0.145,0.855,0],[0,0.5,0]];shape=mxgraph.bpmn.event;html=1;verticalLabelPosition=bottom;labelBackgroundColor=#ffffff;verticalAlign=top;align=center;perimeter=ellipsePerimeter;outlineConnect=0;aspect=fixed;outline=standard;symbol=timer;" vertex="1" parent="ost7xarvKawhktNh5oQj-2">
          <mxGeometry x="21" y="175" width="50" height="50" as="geometry" />
        </mxCell>
      </root>
    </mxGraphModel>
  </diagram>
</mxfile>
